# xmcd
#
# Track frame offsets:
# 150
# 18238
# 39114
# 59179
# 78137
# 97422
# 114001
# 132559
# 150672
# 168989
# 189396
# 214200
# 232646
#
# Disc length: 3586 seconds
#
# Revision: 0
# Processed by: cddbd v1.5.2PL0 Copyright (c) Steve Scherf et al.
# Submitted via: Axialis_AX_CDPlayer 2.6
#
DISCID=a00e000d
DTITLE=Joan Armatrading - Into The Blues
DYEAR=1900
DGENRE=
TTITLE0=A Woman In Love
TTITLE1=Play The Blues
TTITLE2=Into The Blues
TTITLE3=Liza
TTITLE4=Secular Song
TTITLE5=My Baby's Gone
TTITLE6=D.N.A.
TTITLE7=Baby Blue
TTITLE8=Deep Down
TTITLE9=The Ain't A Girl Alive
TTITLE10=Empty Highway
TTITLE11=Mama Papa
TTITLE12=Something's Gotta Blow
EXTD=
EXTT0=
EXTT1=
EXTT2=
EXTT3=
EXTT4=
EXTT5=
EXTT6=
EXTT7=
EXTT8=
EXTT9=
EXTT10=
EXTT11=
EXTT12=
PLAYORDER=
